<?xml version="1.0" encoding="UTF-8" standalone="no"?>
<!-- Generator: Adobe Illustrator 19.0.0, SVG Export Plug-In . SVG Version: 6.00 Build 0)  -->

<svg
   xmlns:osb="http://www.openswatchbook.org/uri/2009/osb"
   xmlns:dc="http://purl.org/dc/elements/1.1/"
   xmlns:cc="http://creativecommons.org/ns#"
   xmlns:rdf="http://www.w3.org/1999/02/22-rdf-syntax-ns#"
   xmlns:svg="http://www.w3.org/2000/svg"
   xmlns="http://www.w3.org/2000/svg"
   xmlns:xlink="http://www.w3.org/1999/xlink"
   xmlns:sodipodi="http://sodipodi.sourceforge.net/DTD/sodipodi-0.dtd"
   xmlns:inkscape="http://www.inkscape.org/namespaces/inkscape"
   version="1.1"
   id="Capa_1"
   x="0px"
   y="0px"
   viewBox="0 0 329.13748 100.74829"
   xml:space="preserve"
   inkscape:version="0.91 r13725"
   sodipodi:docname="getnas.svg"
   width="92.889915mm"
   height="28.433405mm"
   style="enable-background:new"><sodipodi:namedview
     pagecolor="#ffffff"
     bordercolor="#666666"
     borderopacity="1"
     objecttolerance="10"
     gridtolerance="10"
     guidetolerance="10"
     inkscape:pageopacity="0"
     inkscape:pageshadow="2"
     inkscape:window-width="1440"
     inkscape:window-height="851"
     id="namedview39"
     showgrid="false"
     units="mm"
     showguides="true"
     inkscape:guide-bbox="true"
     inkscape:snap-page="true"
     inkscape:snap-grids="true"
     inkscape:zoom="0.98333333"
     inkscape:cx="198.3378"
     inkscape:cy="-62.310595"
     inkscape:window-x="0"
     inkscape:window-y="1"
     inkscape:window-maximized="1"
     inkscape:current-layer="layer4"
     inkscape:snap-text-baseline="true"
     width="100mm"
     fit-margin-top="0"
     fit-margin-left="0"
     fit-margin-right="0"
     fit-margin-bottom="0"
     inkscape:snap-to-guides="true"><inkscape:grid
       id="grid3372"
       type="xygrid"
       originx="-431.07699"
       originy="-1011.6471" /></sodipodi:namedview><metadata
     id="metadata43"><rdf:RDF><cc:Work
         rdf:about=""><dc:format>image/svg+xml</dc:format><dc:type
           rdf:resource="http://purl.org/dc/dcmitype/StillImage" /><dc:title></dc:title></cc:Work></rdf:RDF></metadata><defs
     id="defs41"><linearGradient
       osb:paint="solid"
       id="linearGradient4404"><stop
         id="stop4406"
         offset="0"
         style="stop-color:#000000;stop-opacity:1;" /></linearGradient><linearGradient
       gradientTransform="matrix(0.77145647,0,0,0.77145647,-73.08798,-227.71949)"
       gradientUnits="userSpaceOnUse"
       y2="458.65594"
       x2="504.87793"
       y1="458.65594"
       x1="445.54865"
       id="linearGradient4408"
       xlink:href="#linearGradient4404"
       inkscape:collect="always" /></defs><g
     style="display:inline"
     inkscape:label="Layer 4"
     id="layer4"
     inkscape:groupmode="layer"
     transform="translate(-215.5385,-442.79041)"><text
       xml:space="preserve"
       style="font-style:normal;font-weight:normal;font-size:40px;line-height:125%;font-family:sans-serif;letter-spacing:0px;word-spacing:0px;display:inline;opacity:1;fill:#000000;fill-opacity:1;stroke:none;stroke-width:1px;stroke-linecap:butt;stroke-linejoin:miter;stroke-opacity:1"
       x="422.90842"
       y="542.97229"
       id="text4536"
       sodipodi:linespacing="125%"><tspan
         sodipodi:role="line"
         id="tspan4538"
         x="422.90842"
         y="542.97229"><tspan
   style="font-size:125px;fill:#eb224a;fill-opacity:1"
   id="tspan4540">.</tspan>com</tspan></text>
</g><g
     style="display:none"
     inkscape:label="Layer 3"
     id="layer3"
     inkscape:groupmode="layer"
     transform="translate(-215.5385,-442.79041)"><g
       transform="matrix(0.3968157,0,0,0.3968157,153.39621,358.57222)"
       id="g4400"
       style="fill:#ff0000;fill-opacity:1"><path
         inkscape:connector-curvature="0"
         id="path5"
         d="m 288.87298,444.4143 c -18.12803,0 -32.87637,14.74834 -32.87637,32.87637 0,18.12803 14.74834,32.87636 32.87637,32.87636 18.12803,0 32.87636,-14.74833 32.87636,-32.87636 0,-18.12803 -14.74833,-32.87637 -32.87636,-32.87637 z m 0,63.56098 c -16.91928,0 -30.68461,-13.76534 -30.68461,-30.68461 0,-16.91928 13.76533,-30.68461 30.68461,-30.68461 16.91927,0 30.68461,13.76533 30.68461,30.68461 0,16.91927 -13.76534,30.68461 -30.68461,30.68461 z"
         style="fill:#ff0000;fill-opacity:1" /><path
         inkscape:connector-curvature="0"
         id="path7"
         d="m 298.73589,466.33188 c 3.62626,0 6.57527,-2.94901 6.57527,-6.57528 0,-3.62626 -2.94901,-6.57527 -6.57527,-6.57527 -3.4312,0 -6.25199,2.64217 -6.54569,5.99884 l -15.41463,11.3029 c -0.95889,-0.54685 -2.06464,-0.86356 -3.2449,-0.86356 -3.62626,0 -6.57527,2.94901 -6.57527,6.57528 0,3.62626 2.94901,6.57527 6.57527,6.57527 1.18026,0 2.28601,-0.31671 3.2449,-0.86355 l 15.41354,11.30289 c 0.29479,3.35668 3.11558,5.99885 6.54678,5.99885 3.62626,0 6.57527,-2.94902 6.57527,-6.57528 0,-3.62626 -2.94901,-6.57527 -6.57527,-6.57527 -2.94792,0 -5.44871,1.95066 -6.28048,4.62789 l -13.9352,-10.21907 c 0.98519,-1.15067 1.58574,-2.64106 1.58574,-4.27173 0,-1.63067 -0.60055,-3.12107 -1.58684,-4.27174 l 13.9352,-10.21907 c 0.83287,2.67723 3.33366,4.6279 6.28158,4.6279 z m 0,-10.95879 c 2.41751,0 4.38351,1.96601 4.38351,4.38351 0,2.41751 -1.966,4.38352 -4.38351,4.38352 -2.41751,0 -4.38352,-1.96601 -4.38352,-4.38352 0,-2.4175 1.96601,-4.38351 4.38352,-4.38351 z m -29.58873,20.8217 c 0,-2.41751 1.966,-4.38352 4.38351,-4.38352 2.41751,0 4.38352,1.96601 4.38352,4.38352 0,2.41751 -1.96601,4.38351 -4.38352,4.38351 -2.41751,0 -4.38351,-1.966 -4.38351,-4.38351 z m 29.58873,12.05467 c 2.41751,0 4.38351,1.966 4.38351,4.38351 0,2.41751 -1.966,4.38352 -4.38351,4.38352 -2.41751,0 -4.38352,-1.96601 -4.38352,-4.38352 0,-2.41751 1.96601,-4.38351 4.38352,-4.38351 z"
         style="fill:#ff0000;fill-opacity:1" /></g><text
       xml:space="preserve"
       style="font-style:normal;font-weight:normal;font-size:40px;line-height:125%;font-family:sans-serif;letter-spacing:0px;word-spacing:0px;fill:#000000;fill-opacity:1;stroke:none;stroke-width:1px;stroke-linecap:butt;stroke-linejoin:miter;stroke-opacity:1"
       x="448.47455"
       y="554.05707"
       id="text4520"
       sodipodi:linespacing="125%"><tspan
         sodipodi:role="line"
         id="tspan4522"
         x="448.47455"
         y="554.05707">com</tspan></text>
</g><g
     transform="translate(-215.5385,549.57179)"
     id="g9" /><g
     transform="translate(-215.5385,549.57179)"
     id="g11" /><g
     transform="translate(-215.5385,549.57179)"
     id="g13" /><g
     transform="translate(-215.5385,549.57179)"
     id="g15" /><g
     transform="translate(-215.5385,549.57179)"
     id="g17" /><g
     transform="translate(-215.5385,549.57179)"
     id="g19" /><g
     transform="translate(-215.5385,549.57179)"
     id="g21" /><g
     transform="translate(-215.5385,549.57179)"
     id="g23" /><g
     transform="translate(-215.5385,549.57179)"
     id="g25" /><g
     transform="translate(-215.5385,549.57179)"
     id="g27" /><g
     transform="translate(-215.5385,549.57179)"
     id="g29" /><g
     transform="translate(-215.5385,549.57179)"
     id="g31" /><g
     transform="translate(-215.5385,549.57179)"
     id="g33" /><g
     transform="translate(-215.5385,549.57179)"
     id="g35" /><g
     transform="translate(-215.5385,549.57179)"
     id="g37" /><g
     style="display:none"
     inkscape:label="Layer 2"
     id="layer2"
     inkscape:groupmode="layer"
     transform="translate(-215.5385,-442.79041)"><path
       style="fill:url(#linearGradient4408);fill-opacity:1"
       inkscape:connector-curvature="0"
       id="path3384"
       d="m 308.55707,114.34419 c 4.32722,0 7.84628,-3.51905 7.84628,-7.84627 0,-4.32723 -3.51906,-7.846292 -7.84628,-7.846292 -4.09445,0 -7.4605,3.152902 -7.81096,7.158422 l -18.3943,13.48776 c -1.14424,-0.65255 -2.46372,-1.03048 -3.87213,-1.03048 -4.32723,0 -7.84628,3.51906 -7.84628,7.84628 0,4.32721 3.51905,7.84627 7.84628,7.84627 1.40841,0 2.72789,-0.37792 3.87213,-1.03047 l 18.39299,13.48774 c 0.35177,4.00553 3.71782,7.15842 7.81227,7.15842 4.32722,0 7.84628,-3.51905 7.84628,-7.84627 0,-4.32722 -3.51906,-7.84628 -7.84628,-7.84628 -3.51774,0 -6.50195,2.32774 -7.4945,5.52248 l -16.62888,-12.19443 c 1.17564,-1.3731 1.89227,-3.15158 1.89227,-5.09746 0,-1.94588 -0.71663,-3.72437 -1.89357,-5.09748 l 16.62887,-12.19441 c 0.99386,3.19474 3.97807,5.52247 7.49581,5.52247 z m 0,-13.07713 c 2.88482,0 5.23086,2.34605 5.23086,5.23086 0,2.88482 -2.34604,5.23084 -5.23086,5.23084 -2.88481,0 -5.23085,-2.34602 -5.23085,-5.23084 0,-2.88481 2.34604,-5.23086 5.23085,-5.23086 z m -35.30825,24.84655 c 0,-2.88482 2.34604,-5.23085 5.23086,-5.23085 2.8848,0 5.23085,2.34603 5.23085,5.23085 0,2.88481 -2.34605,5.23086 -5.23085,5.23086 -2.88482,0 -5.23086,-2.34605 -5.23086,-5.23086 z m 35.30825,14.38485 c 2.88482,0 5.23086,2.34603 5.23086,5.23084 0,2.88482 -2.34604,5.23086 -5.23086,5.23086 -2.88481,0 -5.23085,-2.34604 -5.23085,-5.23086 0,-2.88481 2.34604,-5.23084 5.23085,-5.23084 z" /></g><g
     style="display:inline;opacity:1"
     transform="translate(-215.5385,549.57179)"
     inkscape:label="Layer 1"
     id="layer1"
     inkscape:groupmode="layer"><text
       sodipodi:linespacing="125%"
       id="text3374"
       y="-482.52179"
       x="209.5085"
       style="font-style:normal;font-variant:normal;font-weight:normal;font-stretch:normal;font-size:90px;line-height:125%;font-family:'Tsukushi A Round Gothic';-inkscape-font-specification:'Tsukushi A Round Gothic';letter-spacing:0px;word-spacing:0px;fill:#000000;fill-opacity:1;stroke:none;stroke-width:1px;stroke-linecap:butt;stroke-linejoin:miter;stroke-opacity:1"
       xml:space="preserve"><tspan
         y="-482.52179"
         x="209.5085"
         id="tspan3376"
         sodipodi:role="line">GetNAS</tspan></text>
</g></svg>