<?xml version="1.0" encoding="UTF-8" standalone="no"?>
<!-- Generator: Adobe Illustrator 19.0.0, SVG Export Plug-In . SVG Version: 6.00 Build 0)  -->

<svg
   xmlns:osb="http://www.openswatchbook.org/uri/2009/osb"
   xmlns:dc="http://purl.org/dc/elements/1.1/"
   xmlns:cc="http://creativecommons.org/ns#"
   xmlns:rdf="http://www.w3.org/1999/02/22-rdf-syntax-ns#"
   xmlns:svg="http://www.w3.org/2000/svg"
   xmlns="http://www.w3.org/2000/svg"
   xmlns:xlink="http://www.w3.org/1999/xlink"
   xmlns:sodipodi="http://sodipodi.sourceforge.net/DTD/sodipodi-0.dtd"
   xmlns:inkscape="http://www.inkscape.org/namespaces/inkscape"
   version="1.1"
   id="Capa_1"
   x="0px"
   y="0px"
   viewBox="0 0 317.13746 100.74828"
   xml:space="preserve"
   inkscape:version="0.91 r13725"
   sodipodi:docname="getnas.svg"
   width="89.503242mm"
   height="28.433403mm"
   style="enable-background:new"><sodipodi:namedview
     pagecolor="#ffffff"
     bordercolor="#666666"
     borderopacity="1"
     objecttolerance="10"
     gridtolerance="10"
     guidetolerance="10"
     inkscape:pageopacity="0"
     inkscape:pageshadow="2"
     inkscape:window-width="1440"
     inkscape:window-height="851"
     id="namedview39"
     showgrid="false"
     units="mm"
     showguides="true"
     inkscape:guide-bbox="true"
     inkscape:snap-page="true"
     inkscape:snap-grids="true"
     inkscape:zoom="0.98333333"
     inkscape:cx="186.33779"
     inkscape:cy="-62.3106"
     inkscape:window-x="0"
     inkscape:window-y="1"
     inkscape:window-maximized="1"
     inkscape:current-layer="layer1"
     inkscape:snap-text-baseline="false"
     width="100mm"
     fit-margin-top="0"
     fit-margin-left="0"
     fit-margin-right="0"
     fit-margin-bottom="0"
     inkscape:snap-to-guides="true"><inkscape:grid
       id="grid3372"
       type="xygrid"
       originx="-443.07697"
       originy="-1011.6471" /></sodipodi:namedview><metadata
     id="metadata43"><rdf:RDF><cc:Work
         rdf:about=""><dc:format>image/svg+xml</dc:format><dc:type
           rdf:resource="http://purl.org/dc/dcmitype/StillImage" /><dc:title></dc:title></cc:Work></rdf:RDF></metadata><defs
     id="defs41"><linearGradient
       osb:paint="solid"
       id="linearGradient4404"><stop
         id="stop4406"
         offset="0"
         style="stop-color:#000000;stop-opacity:1;" /></linearGradient><linearGradient
       gradientTransform="matrix(0.77145647,0,0,0.77145647,-73.08798,-227.71949)"
       gradientUnits="userSpaceOnUse"
       y2="458.65594"
       x2="504.87793"
       y1="458.65594"
       x1="445.54865"
       id="linearGradient4408"
       xlink:href="#linearGradient4404"
       inkscape:collect="always" /></defs><g
     style="display:inline"
     inkscape:label="Layer 4"
     id="layer4"
     inkscape:groupmode="layer"
     transform="translate(-227.53851,-442.79041)" /><g
     style="display:none"
     inkscape:label="Layer 3"
     id="layer3"
     inkscape:groupmode="layer"
     transform="translate(-227.53851,-442.79041)"><g
       transform="matrix(0.3968157,0,0,0.3968157,153.39621,358.57222)"
       id="g4400"
       style="fill:#ff0000;fill-opacity:1"><path
         inkscape:connector-curvature="0"
         id="path5"
         d="m 288.87298,444.4143 c -18.12803,0 -32.87637,14.74834 -32.87637,32.87637 0,18.12803 14.74834,32.87636 32.87637,32.87636 18.12803,0 32.87636,-14.74833 32.87636,-32.87636 0,-18.12803 -14.74833,-32.87637 -32.87636,-32.87637 z m 0,63.56098 c -16.91928,0 -30.68461,-13.76534 -30.68461,-30.68461 0,-16.91928 13.76533,-30.68461 30.68461,-30.68461 16.91927,0 30.68461,13.76533 30.68461,30.68461 0,16.91927 -13.76534,30.68461 -30.68461,30.68461 z"
         style="fill:#ff0000;fill-opacity:1" /><path
         inkscape:connector-curvature="0"
         id="path7"
         d="m 298.73589,466.33188 c 3.62626,0 6.57527,-2.94901 6.57527,-6.57528 0,-3.62626 -2.94901,-6.57527 -6.57527,-6.57527 -3.4312,0 -6.25199,2.64217 -6.54569,5.99884 l -15.41463,11.3029 c -0.95889,-0.54685 -2.06464,-0.86356 -3.2449,-0.86356 -3.62626,0 -6.57527,2.94901 -6.57527,6.57528 0,3.62626 2.94901,6.57527 6.57527,6.57527 1.18026,0 2.28601,-0.31671 3.2449,-0.86355 l 15.41354,11.30289 c 0.29479,3.35668 3.11558,5.99885 6.54678,5.99885 3.62626,0 6.57527,-2.94902 6.57527,-6.57528 0,-3.62626 -2.94901,-6.57527 -6.57527,-6.57527 -2.94792,0 -5.44871,1.95066 -6.28048,4.62789 l -13.9352,-10.21907 c 0.98519,-1.15067 1.58574,-2.64106 1.58574,-4.27173 0,-1.63067 -0.60055,-3.12107 -1.58684,-4.27174 l 13.9352,-10.21907 c 0.83287,2.67723 3.33366,4.6279 6.28158,4.6279 z m 0,-10.95879 c 2.41751,0 4.38351,1.96601 4.38351,4.38351 0,2.41751 -1.966,4.38352 -4.38351,4.38352 -2.41751,0 -4.38352,-1.96601 -4.38352,-4.38352 0,-2.4175 1.96601,-4.38351 4.38352,-4.38351 z m -29.58873,20.8217 c 0,-2.41751 1.966,-4.38352 4.38351,-4.38352 2.41751,0 4.38352,1.96601 4.38352,4.38352 0,2.41751 -1.96601,4.38351 -4.38352,4.38351 -2.41751,0 -4.38351,-1.966 -4.38351,-4.38351 z m 29.58873,12.05467 c 2.41751,0 4.38351,1.966 4.38351,4.38351 0,2.41751 -1.966,4.38352 -4.38351,4.38352 -2.41751,0 -4.38352,-1.96601 -4.38352,-4.38352 0,-2.41751 1.96601,-4.38351 4.38352,-4.38351 z"
         style="fill:#ff0000;fill-opacity:1" /></g><text
       xml:space="preserve"
       style="font-style:normal;font-weight:normal;font-size:40px;line-height:125%;font-family:sans-serif;letter-spacing:0px;word-spacing:0px;fill:#000000;fill-opacity:1;stroke:none;stroke-width:1px;stroke-linecap:butt;stroke-linejoin:miter;stroke-opacity:1"
       x="448.47455"
       y="554.05707"
       id="text4520"
       sodipodi:linespacing="125%"><tspan
         sodipodi:role="line"
         id="tspan4522"
         x="448.47455"
         y="554.05707">com</tspan></text>
</g><g
     transform="translate(-227.53851,549.57179)"
     id="g9" /><g
     transform="translate(-227.53851,549.57179)"
     id="g11" /><g
     transform="translate(-227.53851,549.57179)"
     id="g13" /><g
     transform="translate(-227.53851,549.57179)"
     id="g15" /><g
     transform="translate(-227.53851,549.57179)"
     id="g17" /><g
     transform="translate(-227.53851,549.57179)"
     id="g19" /><g
     transform="translate(-227.53851,549.57179)"
     id="g21" /><g
     transform="translate(-227.53851,549.57179)"
     id="g23" /><g
     transform="translate(-227.53851,549.57179)"
     id="g25" /><g
     transform="translate(-227.53851,549.57179)"
     id="g27" /><g
     transform="translate(-227.53851,549.57179)"
     id="g29" /><g
     transform="translate(-227.53851,549.57179)"
     id="g31" /><g
     transform="translate(-227.53851,549.57179)"
     id="g33" /><g
     transform="translate(-227.53851,549.57179)"
     id="g35" /><g
     transform="translate(-227.53851,549.57179)"
     id="g37" /><g
     style="display:none"
     inkscape:label="Layer 2"
     id="layer2"
     inkscape:groupmode="layer"
     transform="translate(-227.53851,-442.79041)"><path
       style="fill:url(#linearGradient4408);fill-opacity:1"
       inkscape:connector-curvature="0"
       id="path3384"
       d="m 308.55707,114.34419 c 4.32722,0 7.84628,-3.51905 7.84628,-7.84627 0,-4.32723 -3.51906,-7.846292 -7.84628,-7.846292 -4.09445,0 -7.4605,3.152902 -7.81096,7.158422 l -18.3943,13.48776 c -1.14424,-0.65255 -2.46372,-1.03048 -3.87213,-1.03048 -4.32723,0 -7.84628,3.51906 -7.84628,7.84628 0,4.32721 3.51905,7.84627 7.84628,7.84627 1.40841,0 2.72789,-0.37792 3.87213,-1.03047 l 18.39299,13.48774 c 0.35177,4.00553 3.71782,7.15842 7.81227,7.15842 4.32722,0 7.84628,-3.51905 7.84628,-7.84627 0,-4.32722 -3.51906,-7.84628 -7.84628,-7.84628 -3.51774,0 -6.50195,2.32774 -7.4945,5.52248 l -16.62888,-12.19443 c 1.17564,-1.3731 1.89227,-3.15158 1.89227,-5.09746 0,-1.94588 -0.71663,-3.72437 -1.89357,-5.09748 l 16.62887,-12.19441 c 0.99386,3.19474 3.97807,5.52247 7.49581,5.52247 z m 0,-13.07713 c 2.88482,0 5.23086,2.34605 5.23086,5.23086 0,2.88482 -2.34604,5.23084 -5.23086,5.23084 -2.88481,0 -5.23085,-2.34602 -5.23085,-5.23084 0,-2.88481 2.34604,-5.23086 5.23085,-5.23086 z m -35.30825,24.84655 c 0,-2.88482 2.34604,-5.23085 5.23086,-5.23085 2.8848,0 5.23085,2.34603 5.23085,5.23085 0,2.88481 -2.34605,5.23086 -5.23085,5.23086 -2.88482,0 -5.23086,-2.34605 -5.23086,-5.23086 z m 35.30825,14.38485 c 2.88482,0 5.23086,2.34603 5.23086,5.23084 0,2.88482 -2.34604,5.23086 -5.23086,5.23086 -2.88481,0 -5.23085,-2.34604 -5.23085,-5.23086 0,-2.88481 2.34604,-5.23084 5.23085,-5.23084 z" /></g><g
     style="display:inline;opacity:1"
     transform="translate(-227.53851,549.57179)"
     inkscape:label="Layer 1"
     id="layer1"
     inkscape:groupmode="layer"><g
       id="g3369"><g
         id="text4536"
         style="font-style:normal;font-weight:normal;font-size:40px;line-height:125%;font-family:sans-serif;letter-spacing:0px;word-spacing:0px;display:inline;opacity:1;fill:#000000;fill-opacity:1;stroke:none;stroke-width:1px;stroke-linecap:butt;stroke-linejoin:miter;stroke-opacity:1;enable-background:new"
         transform="translate(-9.5298063e-7,-992.3622)"><path
           inkscape:connector-curvature="0"
           id="path3388"
           style="font-size:125px;fill:#eb224a;fill-opacity:1"
           d="m 436.27512,527.46936 12.87841,0 0,15.50293 -12.87841,0 0,-15.50293 z" /><path
           inkscape:connector-curvature="0"
           id="path3390"
           d="m 482.21506,521.93713 0,3.35938 q -1.52344,-0.83984 -3.06641,-1.25 -1.52344,-0.42969 -3.08594,-0.42969 -3.49609,0 -5.42968,2.22656 -1.9336,2.20704 -1.9336,6.21094 0,4.00391 1.9336,6.23047 1.93359,2.20703 5.42968,2.20703 1.5625,0 3.08594,-0.41015 1.54297,-0.42969 3.06641,-1.26954 l 0,3.32032 q -1.50391,0.70312 -3.125,1.05468 -1.60157,0.35157 -3.41797,0.35157 -4.94141,0 -7.85156,-3.10547 -2.91016,-3.10547 -2.91016,-8.37891 0,-5.35156 2.92969,-8.41797 2.94922,-3.0664 8.0664,-3.0664 1.66016,0 3.24219,0.35156 1.58203,0.33203 3.06641,1.01562 z" /><path
           inkscape:connector-curvature="0"
           id="path3392"
           d="m 496.90256,523.61682 q -2.89063,0 -4.57032,2.26563 -1.67968,2.24609 -1.67968,6.17187 0,3.92578 1.66015,6.19141 1.67969,2.24609 4.58985,2.24609 2.87109,0 4.55078,-2.26562 1.67969,-2.26563 1.67969,-6.17188 0,-3.88672 -1.67969,-6.15234 -1.67969,-2.28516 -4.55078,-2.28516 z m 0,-3.04687 q 4.6875,0 7.36328,3.04687 2.67578,3.04688 2.67578,8.4375 0,5.3711 -2.67578,8.4375 -2.67578,3.04688 -7.36328,3.04688 -4.70703,0 -7.38282,-3.04688 -2.65625,-3.0664 -2.65625,-8.4375 0,-5.39062 2.65625,-8.4375 2.67579,-3.04687 7.38282,-3.04687 z" /><path
           inkscape:connector-curvature="0"
           id="path3394"
           d="m 529.91037,525.29651 q 1.34766,-2.42188 3.22266,-3.57422 1.875,-1.15234 4.41406,-1.15234 3.41797,0 5.27344,2.40234 1.85546,2.38281 1.85546,6.79688 l 0,13.20312 -3.61328,0 0,-13.08594 q 0,-3.14453 -1.11328,-4.66797 -1.11328,-1.52343 -3.39844,-1.52343 -2.79296,0 -4.41406,1.85547 -1.62109,1.85546 -1.62109,5.05859 l 0,12.36328 -3.61328,0 0,-13.08594 q 0,-3.16406 -1.11328,-4.66797 -1.11329,-1.52343 -3.4375,-1.52343 -2.75391,0 -4.375,1.875 -1.6211,1.85547 -1.6211,5.03906 l 0,12.36328 -3.61328,0 0,-21.875 3.61328,0 0,3.39844 q 1.23047,-2.01172 2.94922,-2.96875 1.71875,-0.95703 4.08203,-0.95703 2.38281,0 4.04297,1.21093 1.67969,1.21094 2.48047,3.51563 z" /></g><g
         id="text3374"
         style="font-style:normal;font-variant:normal;font-weight:normal;font-stretch:normal;font-size:90px;line-height:125%;font-family:'Tsukushi A Round Gothic';-inkscape-font-specification:'Tsukushi A Round Gothic';letter-spacing:0px;word-spacing:0px;fill:#000000;fill-opacity:1;stroke:none;stroke-width:1px;stroke-linecap:butt;stroke-linejoin:miter;stroke-opacity:1"><path
           inkscape:connector-curvature="0"
           id="path3397"
           d="m 263.1785,-510.51179 c 4.14,-0.18 9.45,-0.27 12.69,-0.27 2.52,0 5.76,0 5.76,4.23 0,4.95 -5.22,18.18 -22.32,18.18 -16.38,0 -26.01,-12.42 -26.01,-27.09 0,-14.58 9.81,-28.89 26.91,-28.89 6.66,0 13.14,2.43 17.1,7.83 0.72,0.99 1.62,1.44 2.52,1.44 1.53,0 2.97,-1.35 2.97,-3.06 0,-3.78 -9.72,-11.43 -22.41,-11.43 -21.6,0 -32.85,17.28 -32.85,34.11 0,19.98 14.58,33.03 31.59,33.03 19.89,0 28.8,-15.93 28.8,-25.38 0,-4.95 -2.7,-8.1 -8.37,-8.19 -3.51,-0.09 -8.73,-0.18 -13.23,-0.18 -3.69,0 -6.03,0 -6.03,2.79 0,1.44 0.99,2.88 2.79,2.88 l 0.09,0 z" /><path
           inkscape:connector-curvature="0"
           id="path3399"
           d="m 335.63412,-491.34179 c 0,-1.44 -1.35,-2.61 -2.7,-2.61 -0.63,0 -1.26,0.27 -1.8,0.81 -2.79,3.15 -6.48,5.94 -13.05,5.94 -8.64,0 -15.12,-6.03 -15.12,-15.84 0,-1.26 0.18,-1.62 1.08,-1.62 1.98,0 9.63,0.09 16.38,0.09 3.33,0 6.39,0 8.46,-0.09 4.5,-0.09 6.57,-2.61 6.57,-6.03 0,-5.13 -5.4,-14.76 -17.73,-14.76 -10.62,0 -20.07,8.64 -20.07,21.78 0,12.69 8.91,21.24 20.34,21.24 11.34,0 17.64,-6.84 17.64,-8.91 z m -5.49,-20.25 c 0,1.44 -0.81,2.43 -2.97,2.52 -2.52,0.09 -7.56,0.09 -12.24,0.09 -10.44,0 -11.25,0 -11.25,-0.9 0,-3.33 5.49,-11.07 14.13,-11.07 9.18,0 12.33,6.75 12.33,9.36 z" /><path
           inkscape:connector-curvature="0"
           id="path3401"
           d="m 365.63084,-519.87179 c 1.71,0 2.52,-1.17 2.52,-2.34 0,-1.17 -0.81,-2.34 -2.52,-2.34 l -8.01,0 c -1.17,0 -1.35,0 -1.35,-0.99 0,0 0.18,-7.2 0.18,-9.81 0,-1.89 -1.26,-2.79 -2.61,-2.79 -1.26,0 -2.61,0.9 -2.61,2.61 l 0,2.25 c 0,3.15 -0.09,7.47 -0.09,7.83 0,0.81 -0.18,0.9 -0.99,0.9 l -5.22,0 c -1.71,0 -2.52,1.17 -2.52,2.34 0,1.17 0.81,2.34 2.52,2.34 l 5.31,0 c 0.63,0 0.9,0.18 0.9,1.08 l 0,1.44 c 0,4.41 -0.18,15.39 -0.18,21.15 0,3.96 0,13.77 11.52,13.77 3.6,0 5.76,-0.45 5.76,-2.79 0,-1.17 -0.81,-2.34 -2.16,-2.34 l -0.36,0 c -0.9,0.09 -1.71,0.18 -2.52,0.18 -7.02,0 -7.2,-4.77 -7.2,-11.79 0,-6.66 0.27,-15.93 0.27,-19.35 0,-1.17 0,-1.35 1.44,-1.35 l 7.92,0 z" /><path
           inkscape:connector-curvature="0"
           id="path3403"
           d="m 432.46147,-489.36179 c -0.18,-9.36 -0.36,-24.39 -0.36,-37.8 0,-7.02 0,-13.59 0.18,-18.72 l 0,-0.09 c 0,-1.98 -1.53,-3.06 -3.15,-3.06 -1.44,0 -2.97,0.99 -2.97,3.06 l 0,0.09 c 0.27,8.55 0.54,41.94 0.54,51.57 0,2.7 0,4.41 -1.17,4.41 -0.54,0 -1.26,-0.54 -1.8,-1.44 -6.66,-10.44 -25.2,-44.01 -30.78,-53.37 -1.71,-2.79 -4.32,-4.23 -6.84,-4.23 -3.06,0 -5.85,2.25 -5.85,7.11 l 0,0.27 c 0.18,8.01 0.27,18.27 0.27,28.89 0,9.18 -0.09,18.63 -0.27,26.91 l 0,0.09 c 0,1.8 1.53,2.7 3.06,2.7 1.53,0 3.06,-0.9 3.06,-2.7 l 0,-0.09 c -0.27,-9.36 -0.45,-37.35 -0.45,-48.87 0,-6.3 0,-7.56 1.26,-7.56 0.63,0 1.44,0.72 2.07,1.8 4.86,8.37 24.3,43.83 30.69,54.09 1.53,2.43 3.87,3.51 6.03,3.51 3.33,0 6.48,-2.43 6.48,-6.48 l 0,-0.09 z" /><path
           inkscape:connector-curvature="0"
           id="path3405"
           d="m 497.2235,-486.03179 c 0,-0.45 -0.09,-0.9 -0.27,-1.35 -3.06,-7.2 -14.94,-40.05 -20.88,-56.61 -1.17,-3.24 -3.78,-4.86 -6.39,-4.86 -2.43,0 -4.95,1.53 -6.12,4.77 -4.32,12.42 -14.85,41.31 -19.89,57.6 -0.09,0.27 -0.18,0.63 -0.18,0.9 0,1.53 1.44,2.43 2.79,2.43 1.17,0 2.43,-0.63 2.88,-2.16 1.35,-4.41 4.14,-12.87 6.48,-20.07 0.18,-0.54 0.54,-1.08 1.35,-1.08 1.89,-0.09 9,-0.09 15.39,-0.09 4.59,0 8.91,0 10.35,0.09 0.9,0 1.17,0.36 1.44,1.08 2.79,8.28 6.21,17.55 7.29,20.16 0.54,1.44 1.71,2.07 2.79,2.07 1.53,0 2.97,-1.17 2.97,-2.88 z m -15.39,-25.92 c 0,0.27 -0.18,0.45 -0.81,0.45 -1.35,0 -5.94,0.09 -10.71,0.09 -4.68,0 -9.54,-0.09 -11.34,-0.09 -0.72,0 -0.99,-0.18 -0.99,-0.54 0,-0.72 8.01,-23.85 9.9,-28.98 0.54,-1.44 1.26,-2.16 1.98,-2.16 0.72,0 1.35,0.63 1.8,1.98 1.44,4.5 7.2,19.98 9.99,28.44 0.09,0.27 0.18,0.54 0.18,0.81 z" /><path
           inkscape:connector-curvature="0"
           id="path3407"
           d="m 544.676,-500.07179 c 0,-6.12 -3.51,-12.6 -11.7,-17.1 -3.87,-2.16 -10.26,-5.04 -14.31,-7.2 -4.86,-2.61 -7.11,-6.57 -7.11,-10.26 0,-5.31 4.41,-10.08 11.79,-10.08 6.48,0 10.53,2.61 12.78,5.85 0.72,1.08 1.62,1.53 2.52,1.53 1.44,0 2.7,-1.35 2.7,-2.88 0,-2.88 -6.66,-9.27 -17.91,-9.27 -11.25,0 -17.37,7.29 -17.37,15.03 0,5.58 3.24,11.34 9.9,14.67 4.86,2.43 9.81,4.86 14.4,7.47 5.85,3.33 8.46,8.01 8.46,12.33 0,6.75 -6.12,12.24 -14.76,12.24 -7.29,0 -12.87,-3.06 -15.48,-7.83 -0.63,-1.08 -1.53,-1.44 -2.43,-1.44 -1.53,0 -2.97,1.17 -2.97,2.79 0,2.52 6.21,11.79 20.79,11.79 13.77,0 20.7,-9.18 20.7,-17.64 z" /></g></g></g></svg>